<svg xmlns="http://www.w3.org/2000/svg" xmlns:xlink="http://www.w3.org/1999/xlink" version="1.1" id="Layer_1" x="0px" y="0px" style="enable-background:new 0 0 1080 1080;" xml:space="preserve" viewBox="333 284 414 414">
<style type="text/css">
	.st0{fill:#FFFDEE;}
	.st1{fill:url(#SVGID_1_);}
	.st2{fill:#DDDDDD;}
</style>
<g>
	<linearGradient id="SVGID_1_" gradientUnits="userSpaceOnUse" x1="539.9995" y1="697.9968" x2="539.9995" y2="283.9969">
		<stop offset="0" style="stop-color:#222222"/>
		<stop offset="1" style="stop-color:#000000"/>
	</linearGradient>
	<path class="st1" d="M629.25,698h-178.5C385.72,698,333,645.28,333,580.25v-178.5C333,336.72,385.72,284,450.75,284h178.5   C694.28,284,747,336.72,747,401.75v178.5C747,645.28,694.28,698,629.25,698z"/>
	<g>
		<path class="st2" d="M649.58,404.95l31.22,0.02c-7.42,15.35-23.15,25.94-41.34,25.93c0,0-6.96-0.01-13.63-2.07    c-12.62-3.91-21.5-14.78-25.49-20.53h-40.15c-8.88,0-16.09,7.2-16.09,16.09V566.3c0,12.97-10.72,23.43-23.78,22.99    c-12.5-0.42-22.22-11.09-22.22-23.59V411.14c0-26.97,21.87-48.84,48.84-48.84H600c3.79-5.59,12.86-17.03,25.89-21.05    c6.68-2.05,13.63-2.05,13.63-2.05c18.19,0.01,33.9,10.62,41.3,25.99l-31.21-0.02c-5.59-0.01-10.11,4.52-10.12,10.1l-0.01,19.57    C639.48,400.42,644,404.94,649.58,404.95z"/>
		<path class="st2" d="M561.43,415.05c-5.57,0-10.08,4.52-10.08,10.09v140.77c0,16.46-12.88,30.39-29.33,30.88    c-17.1,0.51-31.17-13.25-31.17-30.24v-0.81c0-20.38-13.29-37.65-31.69-43.61c-4.45-1.45-9.21-2.23-14.15-2.23    c-25.31,0-45.83,20.52-45.83,45.84c0,25.31,20.52,45.83,45.83,45.83c4.61,0,9.06-0.68,13.25-1.95    c13.03,18.93,34.38,31.77,58.68,33.07c43.92,2.35,80.41-32.72,80.41-76.14v-151.5H561.43z M447.24,585.5    c-0.73,0.09-1.48,0.13-2.23,0.13c-10.98,0-19.89-8.91-19.89-19.89c0-10.99,8.91-19.89,19.89-19.89c0.9,0,1.78,0.06,2.65,0.18    c9.74,1.29,17.24,9.62,17.24,19.71C464.9,575.97,457.18,584.4,447.24,585.5z"/>
	</g>
</g>
</svg>